<svg width="71" height="72" viewBox="0 0 71 72" fill="none" xmlns="http://www.w3.org/2000/svg">
<path d="M59.0658 6C60.7266 7.04141 62.2157 8.27605 63.5209 9.69167C64.7896 11.0678 65.8846 12.615 66.7945 14.322L67.0315 14.776C68.9702 18.572 70.0001 22.7418 70.0001 31.6317V41.6031L69.9951 42.6475C69.9129 51.1667 68.8057 55.1397 66.7945 58.9128C65.0557 62.1748 62.6412 64.8532 59.6292 66.8697" stroke="#F1DE02" stroke-width="2" stroke-linecap="round" stroke-linejoin="round"/>
<path d="M66 12.9175C64.962 11.2567 63.7314 9.76756 62.3205 8.46241C60.9488 7.19365 59.4067 6.09872 57.7053 5.18881L57.2528 4.95181C53.4693 3.01309 49.3132 1.98322 40.4525 1.98322H30.5139L29.4729 1.98815C20.9817 2.07035 17.0217 3.17757 13.261 5.18881C10.0098 6.9276 7.34013 9.34208 5.3303 12.354" stroke="#009639" stroke-width="2" stroke-linecap="round" stroke-linejoin="round"/>
<path d="M7.47924 9.66272C6.21048 11.0344 5.11555 12.5765 4.20564 14.2778L3.96864 14.7304C2.02992 18.5139 1.00005 22.67 1.00005 31.5307V41.4693L1.00498 42.5103C1.08718 51.0015 2.1944 54.9615 4.20564 58.7221C5.94443 61.9734 8.75891 64.643 11.7709 66.6529" stroke="#F40000" stroke-width="2" stroke-linecap="round" stroke-linejoin="round"/>
<path d="M8.99304 64.504C10.3647 65.7728 11.9068 66.8677 13.6082 67.7776L14.0607 68.0146C17.8442 69.9533 22.0003 70.9832 30.861 70.9832H40.7996L41.8406 70.9783C50.3318 70.8961 54.2918 69.7888 58.0525 67.7776C58.6314 67.468 59.1918 67.137 59.7334 66.785C62.2335 65.1601 64.1312 63.088 65.7832 60.6124" stroke="#FF8300" stroke-width="2" stroke-linecap="round" stroke-linejoin="round"/>
<path d="M66.7944 58.939C65.0556 62.1902 62.6411 64.8599 59.6292 66.8697" stroke="#FFCF08" stroke-width="2" stroke-linecap="round" stroke-linejoin="round"/>
</svg>
