<svg width="39" height="39" viewBox="0 0 39 39" fill="none" xmlns="http://www.w3.org/2000/svg">
<mask id="mask0_0_317" style="mask-type:alpha" maskUnits="userSpaceOnUse" x="12" y="23" width="15" height="16">
<path fill-rule="evenodd" clip-rule="evenodd" d="M12.0085 23.9896H26.8077V38.7887H12.0085V23.9896Z" fill="white"/>
</mask>
<g mask="url(#mask0_0_317)">
<path fill-rule="evenodd" clip-rule="evenodd" d="M19.4083 35.9981C22.1355 35.9981 24.0169 34.2221 24.0169 31.6641V26.7803H14.7992V31.6641C14.7992 34.2221 16.6807 35.9981 19.4083 35.9981ZM19.4083 38.7888C15.2431 38.7888 12.0085 35.7444 12.0085 31.6641V23.9896H26.8077V31.6641C26.8077 35.7444 23.5731 38.7888 19.4083 38.7888Z" fill="#1D1D1B"/>
</g>
<mask id="mask1_0_317" style="mask-type:alpha" maskUnits="userSpaceOnUse" x="12" y="0" width="15" height="15">
<path fill-rule="evenodd" clip-rule="evenodd" d="M12.0084 0.0997314H26.8076V14.7718H12.0084V0.0997314Z" fill="white"/>
</mask>
<g mask="url(#mask1_0_317)">
<path fill-rule="evenodd" clip-rule="evenodd" d="M19.4078 2.8904C16.6806 2.8904 14.7991 4.66632 14.7991 7.22431V11.9811H24.0169V7.22431C24.0169 4.66632 22.1354 2.8904 19.4078 2.8904ZM19.4078 0.0996704C23.573 0.0996704 26.8076 3.14407 26.8076 7.22431V14.7718H12.0084V7.22431C12.0084 3.14407 15.243 0.0996704 19.4078 0.0996704Z" fill="#1D1D1B"/>
</g>
<mask id="mask2_0_317" style="mask-type:alpha" maskUnits="userSpaceOnUse" x="0" y="11" width="15" height="16">
<path fill-rule="evenodd" clip-rule="evenodd" d="M0 11.9811H14.7992V26.7803H0V11.9811Z" fill="white"/>
</mask>
<g mask="url(#mask2_0_317)">
<path fill-rule="evenodd" clip-rule="evenodd" d="M2.79073 19.3809C2.79073 22.108 4.56665 23.9896 7.12464 23.9896H12.0085V14.7718H7.12464C4.56665 14.7718 2.79073 16.6533 2.79073 19.3809ZM0 19.3809C0 15.2156 3.0444 11.9811 7.12464 11.9811H14.7992V26.7803H7.12464C3.0444 26.7803 0 23.5457 0 19.3809Z" fill="#1D1D1B"/>
</g>
<mask id="mask3_0_317" style="mask-type:alpha" maskUnits="userSpaceOnUse" x="24" y="11" width="15" height="16">
<path fill-rule="evenodd" clip-rule="evenodd" d="M24.017 11.9811H38.8162V26.7802H24.017V11.9811Z" fill="white"/>
</mask>
<g mask="url(#mask3_0_317)">
<path fill-rule="evenodd" clip-rule="evenodd" d="M36.0256 19.3804C36.0256 16.6532 34.2495 14.7718 31.6915 14.7718H26.8078V23.9896H31.6915C34.2495 23.9896 36.0256 22.108 36.0256 19.3804ZM38.8162 19.3804C38.8162 23.5456 35.7718 26.7802 31.6915 26.7802H24.017V11.9811H31.6915C35.7718 11.9811 38.8162 15.2156 38.8162 19.3804Z" fill="#1D1D1B"/>
</g>
<path fill-rule="evenodd" clip-rule="evenodd" d="M36.0255 19.3805C36.0255 16.6533 34.2495 14.7719 31.6915 14.7719H26.8077V23.9896H31.6915C34.2495 23.9896 36.0255 22.1081 36.0255 19.3805Z" fill="#F1DE02"/>
<path fill-rule="evenodd" clip-rule="evenodd" d="M19.4078 2.89044C16.6806 2.89044 14.7992 4.66637 14.7992 7.22436V11.9812H24.017V7.22436C24.017 4.66637 22.1354 2.89044 19.4078 2.89044Z" fill="#009639"/>
<path fill-rule="evenodd" clip-rule="evenodd" d="M19.4083 35.9981C22.1355 35.9981 24.017 34.2222 24.017 31.6642V26.7803H14.7992V31.6642C14.7992 34.2222 16.6807 35.9981 19.4083 35.9981Z" fill="#FF8300"/>
<path fill-rule="evenodd" clip-rule="evenodd" d="M2.79065 19.381C2.79065 22.1081 4.56658 23.9896 7.12457 23.9896H12.0084V14.7719H7.12457C4.56658 14.7719 2.79065 16.6534 2.79065 19.381Z" fill="#F40000"/>
</svg>
